<svg xmlns="http://www.w3.org/2000/svg" width="24" height="24" viewBox="0 0 24 24" fill="none"><path d="M12.6952 12.56C12.2232 12.216 11.5102 11.697 11.5012 11.498C11.5012 11.215 12.1472 10.574 12.6662 10.06C13.8622 8.87302 15.5012 7.24805 15.5012 5.00002C15.5281 3.3247 14.6085 1.77731 13.1242 1.00003H15.5012C15.7774 1.00003 16.0012 0.776156 16.0012 0.500016C16.0012 0.223875 15.7774 0 15.5012 0H9.0012C8.56817 0.00145312 8.13607 0.0415781 7.71021 0.12C9.70123 -0.276984 11.7922 1.5 12.4012 4.15298C13.0242 6.84 11.8912 9.39998 9.87621 9.87C9.66598 9.91842 9.45096 9.94294 9.2352 9.94298C7.42418 9.94298 5.65221 8.24297 5.09618 5.84297C4.4832 3.183 5.5962 0.651 7.56823 0.149016C4.66507 0.578625 2.51164 3.06525 2.50123 6C2.50123 9.441 5.72023 10.679 8.03721 10.943C7.52299 11.9136 7.54109 13.0799 8.08521 14.034C5.04021 14.249 0.501213 15.566 0.501213 19.5C0.465401 20.5593 0.870166 21.5861 1.61923 22.336C3.17623 23.871 5.90923 24 7.3362 24C7.5072 24 7.65818 24 7.7862 24H8.00121C8.0862 24 16.5012 23.851 16.5012 18.5C16.5012 15.333 14.2112 13.665 12.6952 12.56ZM9.0012 23C6.46418 23 3.50121 21.953 3.50121 19C3.50121 16.047 6.92721 14 10.0012 14C10.0909 14.0001 10.1791 14.0242 10.2562 14.07C10.6912 14.328 14.5012 16.658 14.5012 19C14.5012 21.39 11.6572 23 9.0012 23Z" fill="#333333"></path><path d="M20.001 14C19.7249 14 19.501 13.7762 19.501 13.5V7.50002C19.501 7.22388 19.7249 7 20.001 7C20.2771 7 20.501 7.22388 20.501 7.50002V13.5C20.501 13.7762 20.2771 14 20.001 14Z" fill="#333333"></path><path d="M23.001 11H17.001C16.7249 11 16.501 10.7762 16.501 10.5C16.501 10.2239 16.7249 10 17.001 10H23.001C23.2771 10 23.501 10.2239 23.501 10.5C23.501 10.7762 23.2771 11 23.001 11Z" fill="#333333"></path></svg>